<?xml version='1.0' encoding='utf-8'?>
<svg xmlns="http://www.w3.org/2000/svg" version="1.1" width="900" height="420" viewBox="0 0 900 420">
  <rect x="80" y="30" width="790" height="320" fill="#fbfbfb" stroke-width="1" stroke="#cccccc" />
  <line x1="80" y1="350.0" x2="870" y2="350.0" stroke="#e6e6e6" stroke-width="1" />
  <text x="70" y="354.0" font-family="Verdana" font-size="11" style="text-anchor: end; fill: #555;">1040</text>
  <line x1="80" y1="286.0" x2="870" y2="286.0" stroke="#e6e6e6" stroke-width="1" />
  <text x="70" y="290.0" font-family="Verdana" font-size="11" style="text-anchor: end; fill: #555;">1060</text>
  <line x1="80" y1="222.0" x2="870" y2="222.0" stroke="#e6e6e6" stroke-width="1" />
  <text x="70" y="226.0" font-family="Verdana" font-size="11" style="text-anchor: end; fill: #555;">1080</text>
  <line x1="80" y1="158.0" x2="870" y2="158.0" stroke="#e6e6e6" stroke-width="1" />
  <text x="70" y="162.0" font-family="Verdana" font-size="11" style="text-anchor: end; fill: #555;">1100</text>
  <line x1="80" y1="94.0" x2="870" y2="94.0" stroke="#e6e6e6" stroke-width="1" />
  <text x="70" y="98.0" font-family="Verdana" font-size="11" style="text-anchor: end; fill: #555;">1120</text>
  <line x1="80" y1="30.0" x2="870" y2="30.0" stroke="#e6e6e6" stroke-width="1" />
  <text x="70" y="34.0" font-family="Verdana" font-size="11" style="text-anchor: end; fill: #555;">1140</text>
  <line x1="80.0" y1="30" x2="80.0" y2="350" stroke="#e6e6e6" stroke-width="1" />
  <text x="80.0" y="368" font-family="Verdana" font-size="11" style="text-anchor: middle; fill: #555;">0</text>
  <line x1="214.75931506028397" y1="30" x2="214.75931506028397" y2="350" stroke="#e6e6e6" stroke-width="1" />
  <text x="214.75931506028397" y="368" font-family="Verdana" font-size="11" style="text-anchor: middle; fill: #555;">1000</text>
  <line x1="349.51863012056793" y1="30" x2="349.51863012056793" y2="350" stroke="#e6e6e6" stroke-width="1" />
  <text x="349.51863012056793" y="368" font-family="Verdana" font-size="11" style="text-anchor: middle; fill: #555;">2000</text>
  <line x1="484.27794518085193" y1="30" x2="484.27794518085193" y2="350" stroke="#e6e6e6" stroke-width="1" />
  <text x="484.27794518085193" y="368" font-family="Verdana" font-size="11" style="text-anchor: middle; fill: #555;">3000</text>
  <line x1="619.0372602411359" y1="30" x2="619.0372602411359" y2="350" stroke="#e6e6e6" stroke-width="1" />
  <text x="619.0372602411359" y="368" font-family="Verdana" font-size="11" style="text-anchor: middle; fill: #555;">4000</text>
  <line x1="753.7965753014199" y1="30" x2="753.7965753014199" y2="350" stroke="#e6e6e6" stroke-width="1" />
  <text x="753.7965753014199" y="368" font-family="Verdana" font-size="11" style="text-anchor: middle; fill: #555;">5000</text>
  <line x1="80" y1="30" x2="80" y2="350" stroke="#333" stroke-width="1.5" />
  <line x1="80" y1="350" x2="870" y2="350" stroke="#333" stroke-width="1.5" />
  <polyline points="80.00,350.00 80.00,262.37 80.07,262.26 80.45,261.68 82.14,258.52 83.85,257.27 84.71,257.12 87.50,256.14 87.68,256.11 89.50,252.61 91.69,248.78 92.11,248.25 94.29,245.47 96.49,244.36 97.03,244.51 99.31,247.72 99.87,248.51 101.48,250.61 104.98,255.33 107.75,260.13 109.01,263.01 109.17,263.38 109.78,264.85 113.27,274.06 114.02,275.50 115.15,277.39 118.55,284.63 122.04,292.62 122.75,294.01 123.90,294.16 127.46,293.58 128.85,293.11 129.70,293.04 131.49,292.61 133.29,292.40 135.00,291.88 136.86,290.25 137.03,290.11 137.72,290.40 138.50,291.56 140.75,296.04 141.19,296.74 143.54,300.68 145.22,300.57 147.52,299.06 148.44,298.68 150.62,298.92 150.89,298.92 151.02,298.91 152.06,297.65 153.28,297.64 154.85,295.98 155.00,295.68 155.40,294.86 157.26,291.76 158.45,289.27 161.55,280.83 163.99,274.10 164.34,273.17 164.81,271.92 164.99,271.45 166.15,268.29 166.82,266.65 167.94,264.30 169.81,260.02 171.15,257.73 171.79,256.78 173.22,254.71 174.21,253.08 174.58,252.50 177.25,247.66 179.17,243.70 180.85,239.99 181.72,238.52 182.53,237.73 182.66,237.47 182.68,237.42 183.73,238.86 184.59,240.53 184.70,240.76 184.92,241.19 185.55,242.45 186.20,241.29 186.95,242.68 187.38,241.83 188.08,240.39 189.02,238.72 189.22,238.31 189.27,238.36 189.39,238.33 192.14,234.72 193.95,232.97 194.13,233.33 194.82,234.74 195.63,233.96 195.95,233.67 197.92,234.94 198.44,236.05 198.95,237.03 199.30,236.25 200.21,237.14 200.61,237.61 203.50,239.72 205.65,241.04 207.39,241.34 210.53,243.40 211.39,244.51 212.21,245.54 212.45,245.85 212.76,246.30 212.99,246.52 213.05,246.50 213.98,246.40 215.32,246.19 217.95,245.82 218.29,245.70 218.58,245.72 221.28,246.10 222.59,247.32 226.13,250.44 227.23,251.48 227.40,251.66 227.74,251.99 231.84,256.22 235.64,259.02 238.28,261.17 239.88,262.61 242.51,265.52 243.95,266.76 245.15,263.58 245.60,262.97 246.06,262.49 247.11,263.36 247.96,262.68 249.09,260.77 249.51,260.65 250.50,259.78 252.92,257.09 253.61,255.82 256.44,251.26 259.11,251.12 259.26,250.67 260.10,252.55 261.88,257.58 262.45,259.14 262.82,259.79 265.87,271.58 267.06,276.39 270.30,279.53 270.92,279.98 272.31,282.83 275.14,289.03 275.79,288.49 275.95,288.53 278.28,286.39 280.84,283.77 283.09,278.93 286.04,271.07 287.95,265.10 289.91,259.65 291.48,254.33 293.32,251.17 294.58,247.46 297.88,236.90 300.41,228.53 303.50,220.21 306.38,213.12 309.25,206.54 311.35,202.06 313.71,196.76 315.02,193.36 319.11,184.70 321.01,179.95 324.62,172.05 326.93,167.19 329.17,161.96 331.43,156.70 334.14,150.69 337.17,144.06 339.69,138.51 342.04,133.70 343.05,131.72 343.81,130.33 344.38,129.21 345.34,127.39 349.42,119.98 353.13,116.09 353.63,115.58 355.96,112.59 358.76,109.29 361.28,104.83 365.26,98.53 367.53,96.38 370.43,91.69 371.24,90.44 374.14,84.68 376.46,79.92 376.60,80.20 376.94,80.66 377.40,79.82 378.14,79.44 379.07,78.58 379.22,78.85 381.56,74.65 384.50,69.69 389.96,62.99 390.69,62.49 392.44,61.48 394.84,60.24 397.22,59.18 398.51,58.66 401.18,56.19 402.94,54.25 405.42,53.72 406.37,52.45 409.66,48.87 410.39,48.04 412.79,44.75 415.08,41.73 416.56,39.84 421.43,34.65 423.37,34.27 424.77,35.84 425.78,36.32 426.84,37.33 428.90,40.57 429.60,40.17 432.83,39.37 433.84,41.12 435.36,44.75 437.98,49.90 440.81,56.53 442.73,59.20 444.49,59.25 446.03,59.85 447.27,59.61 448.11,59.11 449.79,56.03 449.95,55.99 450.00,55.91 450.05,55.99 450.45,56.53 451.98,55.42 452.62,55.40 452.79,55.47 453.92,56.13 455.87,54.69 457.53,52.04 458.92,50.46 461.13,46.73 463.14,43.70 463.21,43.64 466.29,44.86 466.34,44.91 466.61,44.68 467.92,45.94 468.74,46.57 469.77,47.72 470.65,49.16 470.85,49.42 471.17,49.57 471.17,49.57 472.28,50.92 474.11,53.69 474.43,53.48 474.71,53.37 474.86,53.24 475.08,53.42 475.14,53.50 476.74,55.75 478.65,57.35 481.11,58.71 482.67,59.39 484.16,59.94 484.65,60.12 486.70,60.83 486.92,60.94 487.55,61.26 489.52,62.20 489.91,62.25 490.09,62.28 490.42,62.36 491.75,63.20 495.26,65.16 496.29,66.28 498.88,68.57 501.97,73.40 503.60,76.58 504.95,78.64 507.05,83.51 507.89,85.74 508.65,88.34 509.40,85.77 509.75,85.62 511.09,84.64 512.25,83.87 513.09,82.92 513.18,82.96 513.24,82.90 513.46,82.94 514.00,82.98 515.86,80.91 516.56,80.11 518.39,78.63 519.21,77.95 521.87,73.61 522.82,72.20 523.39,71.35 523.85,71.10 526.25,68.99 526.75,68.59 527.27,68.41 527.83,67.48 530.60,62.37 533.23,58.73 535.92,55.69 536.78,55.21 537.73,55.20 540.27,56.47 542.02,59.24 544.71,63.67 545.23,64.17 546.89,67.57 547.42,67.47 547.59,67.36 550.02,68.59 553.01,71.81 555.83,70.62 559.25,70.48 559.77,70.68 563.50,69.77 565.57,70.30 567.72,71.34 569.43,70.74 570.26,70.05 572.64,70.58 574.83,71.15 575.14,70.95 577.53,70.00 579.54,68.69 579.81,68.54 580.32,68.44 582.08,68.39 583.92,66.75 584.59,66.36 586.42,65.76 588.00,65.01 588.12,64.89 589.55,63.68 590.11,63.29 592.52,62.71 594.48,62.65 596.76,62.84 597.86,62.46 598.10,62.38 598.40,62.32 599.03,62.24 599.26,62.25 599.58,62.19 603.43,59.83 604.63,59.04 605.74,58.51 607.15,57.20 610.27,54.88 611.06,54.16 612.53,53.45 613.59,52.53 615.07,51.05 617.52,48.22 620.83,44.92 621.76,44.08 622.72,43.62 623.96,43.48 624.47,43.42 627.51,43.96 628.57,44.21 630.15,43.97 630.24,44.02 630.63,43.74 630.64,43.73 630.67,43.75 631.04,43.55 631.92,43.46 632.52,43.31 633.02,43.41 635.49,44.15 637.01,43.68 638.21,42.70 639.82,43.17 642.38,44.41 644.47,46.07 645.42,46.98 647.25,47.79 647.98,48.49 648.18,48.63 648.91,48.93 649.82,49.09 650.16,49.33 652.61,51.09 653.66,51.63 656.12,52.26 656.53,52.39 659.14,53.65 661.38,54.83 662.22,56.10 662.58,56.57 664.51,58.54 667.29,61.07 667.54,61.28 668.90,60.04 669.21,60.56 670.39,61.73 672.47,63.48 672.80,63.76 674.37,66.91 678.96,72.69 681.21,68.97 682.31,66.86 683.67,65.90 686.59,66.08 688.91,65.02 690.31,62.76 690.86,61.90 692.42,59.94 693.48,59.78 694.60,61.51 695.80,62.41 696.08,62.69 697.64,62.91 699.07,61.48 700.52,62.03 702.04,61.83 702.58,62.35 704.13,60.35 705.38,60.90 706.91,60.22 707.43,59.81 710.74,61.93 711.37,63.00 714.64,67.85 714.90,68.14 718.38,70.61 718.61,70.81 720.97,73.44 722.36,75.15 723.40,75.93 724.35,75.78 727.85,78.42 730.46,79.49 733.97,81.25 736.59,83.32 738.75,83.41 741.64,84.28 744.32,87.81 745.20,88.92 745.78,89.79 746.54,90.98 748.00,92.28 748.33,93.12 748.78,94.39 749.14,95.41 751.65,102.63 751.92,103.46 754.82,109.27 757.23,109.53 758.22,109.24 759.65,109.29 760.77,109.99 763.57,109.26 766.05,109.45 767.92,108.86 768.63,110.41 769.84,112.79 771.92,114.61 774.18,116.10 776.56,119.91 778.59,121.65 780.62,123.41 780.96,123.83 783.95,127.41 785.75,129.45 786.08,129.83 788.76,131.94 790.60,135.17 790.93,135.41 793.58,141.18 793.81,141.63 795.09,144.31 796.13,145.75 797.59,147.84 799.64,150.32 801.22,152.44 802.31,153.56 805.49,156.94 806.59,157.98 809.19,161.48 811.11,162.85 813.37,166.40 814.59,167.88 815.36,169.03 817.66,172.76 817.98,173.37 820.82,180.18 823.29,186.49 825.01,190.76 826.69,195.04 827.16,196.51 829.69,204.22 830.18,205.56 832.24,210.58 835.00,215.03 837.87,217.68 838.26,218.06 842.50,222.48 843.32,223.22 846.16,226.31 848.93,229.99 850.66,231.72 852.53,233.33 855.29,236.16 857.57,239.24 860.44,243.90 863.32,249.68 866.21,254.22 868.14,258.36 869.09,260.29 869.35,260.36 869.72,260.54 869.91,260.62 870.00,260.63 870.00,350.00 80.00,350.00" stroke="#1a6fc4" stroke-width="2" fill="rgba(26,111,196,0.18)" />
  <line x1="138.50" y1="350" x2="138.50" y2="291.56" stroke="#c0392b" stroke-width="1" />
  <circle cx="138.50" cy="291.56" r="3" fill="#c0392b" />
  <text x="133.50" y="344.00" font-family="Verdana" font-size="10" style="text-anchor: start; fill: #c0392b; font-weight: bold;" transform="rotate(-90 133.50 344.00)">PASARELA</text>
  <line x1="275.79" y1="350" x2="275.79" y2="288.49" stroke="#c0392b" stroke-width="1" />
  <circle cx="275.79" cy="288.49" r="3" fill="#c0392b" />
  <text x="270.79" y="344.00" font-family="Verdana" font-size="10" style="text-anchor: start; fill: #c0392b; font-weight: bold;" transform="rotate(-90 270.79 344.00)">PUENTE ROMANO</text>
  <line x1="319.11" y1="350" x2="319.11" y2="184.70" stroke="#c0392b" stroke-width="1" />
  <circle cx="319.11" cy="184.70" r="3" fill="#c0392b" />
  <text x="314.11" y="344.00" font-family="Verdana" font-size="10" style="text-anchor: start; fill: #c0392b; font-weight: bold;" transform="rotate(-90 314.11 344.00)">IGLESIA SAN ESTEBAN</text>
  <line x1="605.74" y1="350" x2="605.74" y2="58.51" stroke="#c0392b" stroke-width="1" />
  <circle cx="605.74" cy="58.51" r="3" fill="#c0392b" />
  <text x="600.74" y="344.00" font-family="Verdana" font-size="10" style="text-anchor: start; fill: #c0392b; font-weight: bold;" transform="rotate(-90 600.74 344.00)">IGLESIA SAN PEDRO</text>
  <line x1="733.97" y1="350" x2="733.97" y2="81.25" stroke="#c0392b" stroke-width="1" />
  <circle cx="733.97" cy="81.25" r="3" fill="#c0392b" />
  <text x="728.97" y="344.00" font-family="Verdana" font-size="10" style="text-anchor: start; fill: #c0392b; font-weight: bold;" transform="rotate(-90 728.97 344.00)">BASILICA SAN VICENTE</text>
  <text x="475.0" y="400" font-family="Verdana" font-size="13" style="text-anchor: middle; fill: #333;">Distancia (m)</text>
  <text x="20" y="190.0" font-family="Verdana" font-size="13" style="text-anchor: middle; fill: #333;" transform="rotate(-90 20 190)">Altitud (m)</text>
  <text x="80" y="18" font-family="Verdana" font-size="13" style="fill: #222; font-weight: bold;">Altimetria: AVILA CIUDAD</text>
</svg>