<?xml version='1.0' encoding='utf-8'?>
<svg xmlns="http://www.w3.org/2000/svg" version="1.1" width="900" height="420" viewBox="0 0 900 420">
  <rect x="80" y="30" width="790" height="320" fill="#fbfbfb" stroke-width="1" stroke="#cccccc" />
  <line x1="80" y1="350.0" x2="870" y2="350.0" stroke="#e6e6e6" stroke-width="1" />
  <text x="70" y="354.0" font-family="Verdana" font-size="11" style="text-anchor: end; fill: #555;">1040</text>
  <line x1="80" y1="304.2857142857143" x2="870" y2="304.2857142857143" stroke="#e6e6e6" stroke-width="1" />
  <text x="70" y="308.2857142857143" font-family="Verdana" font-size="11" style="text-anchor: end; fill: #555;">1060</text>
  <line x1="80" y1="258.57142857142856" x2="870" y2="258.57142857142856" stroke="#e6e6e6" stroke-width="1" />
  <text x="70" y="262.57142857142856" font-family="Verdana" font-size="11" style="text-anchor: end; fill: #555;">1080</text>
  <line x1="80" y1="212.85714285714286" x2="870" y2="212.85714285714286" stroke="#e6e6e6" stroke-width="1" />
  <text x="70" y="216.85714285714286" font-family="Verdana" font-size="11" style="text-anchor: end; fill: #555;">1100</text>
  <line x1="80" y1="167.14285714285717" x2="870" y2="167.14285714285717" stroke="#e6e6e6" stroke-width="1" />
  <text x="70" y="171.14285714285717" font-family="Verdana" font-size="11" style="text-anchor: end; fill: #555;">1120</text>
  <line x1="80" y1="121.42857142857142" x2="870" y2="121.42857142857142" stroke="#e6e6e6" stroke-width="1" />
  <text x="70" y="125.42857142857142" font-family="Verdana" font-size="11" style="text-anchor: end; fill: #555;">1140</text>
  <line x1="80" y1="75.71428571428572" x2="870" y2="75.71428571428572" stroke="#e6e6e6" stroke-width="1" />
  <text x="70" y="79.71428571428572" font-family="Verdana" font-size="11" style="text-anchor: end; fill: #555;">1160</text>
  <line x1="80" y1="30.0" x2="870" y2="30.0" stroke="#e6e6e6" stroke-width="1" />
  <text x="70" y="34.0" font-family="Verdana" font-size="11" style="text-anchor: end; fill: #555;">1180</text>
  <line x1="80.0" y1="30" x2="80.0" y2="350" stroke="#e6e6e6" stroke-width="1" />
  <text x="80.0" y="368" font-family="Verdana" font-size="11" style="text-anchor: middle; fill: #555;">0</text>
  <line x1="193.88012972233886" y1="30" x2="193.88012972233886" y2="350" stroke="#e6e6e6" stroke-width="1" />
  <text x="193.88012972233886" y="368" font-family="Verdana" font-size="11" style="text-anchor: middle; fill: #555;">2000</text>
  <line x1="307.76025944467773" y1="30" x2="307.76025944467773" y2="350" stroke="#e6e6e6" stroke-width="1" />
  <text x="307.76025944467773" y="368" font-family="Verdana" font-size="11" style="text-anchor: middle; fill: #555;">4000</text>
  <line x1="421.6403891670166" y1="30" x2="421.6403891670166" y2="350" stroke="#e6e6e6" stroke-width="1" />
  <text x="421.6403891670166" y="368" font-family="Verdana" font-size="11" style="text-anchor: middle; fill: #555;">6000</text>
  <line x1="535.5205188893555" y1="30" x2="535.5205188893555" y2="350" stroke="#e6e6e6" stroke-width="1" />
  <text x="535.5205188893555" y="368" font-family="Verdana" font-size="11" style="text-anchor: middle; fill: #555;">8000</text>
  <line x1="649.4006486116944" y1="30" x2="649.4006486116944" y2="350" stroke="#e6e6e6" stroke-width="1" />
  <text x="649.4006486116944" y="368" font-family="Verdana" font-size="11" style="text-anchor: middle; fill: #555;">10000</text>
  <line x1="763.2807783340332" y1="30" x2="763.2807783340332" y2="350" stroke="#e6e6e6" stroke-width="1" />
  <text x="763.2807783340332" y="368" font-family="Verdana" font-size="11" style="text-anchor: middle; fill: #555;">12000</text>
  <line x1="80" y1="30" x2="80" y2="350" stroke="#333" stroke-width="1.5" />
  <line x1="80" y1="350" x2="870" y2="350" stroke="#333" stroke-width="1.5" />
  <polyline points="80.00,350.00 80.00,290.14 80.23,290.65 80.36,290.29 80.44,290.02 81.11,289.18 81.15,289.18 81.36,289.19 81.41,289.21 81.52,289.23 81.74,289.24 81.80,289.23 82.00,289.29 83.25,288.55 83.82,287.50 84.39,287.05 84.68,286.83 84.75,286.79 84.89,286.43 84.96,286.11 86.32,279.10 86.86,276.79 87.09,275.84 88.64,270.78 88.82,270.36 88.90,270.16 90.19,268.30 90.29,268.19 91.75,266.18 92.28,265.31 93.25,264.02 93.99,262.47 95.59,259.11 96.06,258.08 96.81,258.89 98.27,260.46 99.29,261.73 100.30,262.95 101.58,264.61 102.86,267.38 102.99,267.65 103.12,267.86 103.26,268.13 103.39,268.39 103.53,268.62 103.91,269.27 104.03,269.49 104.16,269.74 104.29,270.02 104.43,270.28 104.55,270.56 106.24,274.48 107.21,276.54 107.32,276.83 108.84,280.59 110.10,282.94 111.07,284.09 111.14,283.89 111.23,283.74 111.32,283.64 111.41,283.54 111.50,283.52 113.28,282.20 114.75,284.39 115.02,284.47 115.13,284.65 115.25,284.86 115.37,285.04 115.49,285.25 117.00,286.20 118.44,286.85 119.77,287.59 120.97,289.15 121.44,290.59 121.58,291.24 121.70,291.84 122.20,294.40 122.44,294.47 122.53,294.27 123.48,289.71 123.58,289.19 123.69,288.68 123.80,288.20 123.91,287.68 125.26,285.15 125.38,284.98 125.57,285.66 125.65,285.93 125.74,286.13 125.85,286.25 125.97,286.33 126.09,286.40 127.54,288.05 128.91,291.48 129.89,294.11 129.90,294.13 130.35,294.84 130.44,295.11 130.52,295.30 130.60,295.40 130.66,295.46 130.72,295.52 130.94,295.64 131.15,295.66 131.39,296.80 131.79,296.93 132.70,295.40 132.76,295.53 132.80,295.63 132.82,295.73 132.82,295.73 132.84,295.79 132.85,295.79 132.86,295.76 132.86,295.76 132.86,295.76 132.86,295.76 132.87,295.73 132.87,295.73 132.88,295.73 132.91,295.65 132.92,295.62 132.96,295.62 132.99,295.69 133.03,295.79 133.11,296.05 133.13,296.15 133.13,296.15 133.18,296.25 133.21,296.45 133.25,296.34 133.38,295.76 133.41,295.60 133.47,295.28 133.49,295.28 133.50,295.19 133.51,295.16 133.52,295.12 133.53,295.09 133.53,295.12 133.56,295.07 133.62,294.88 133.69,295.07 133.72,295.11 133.79,295.20 133.86,295.37 133.92,295.56 133.93,295.50 133.93,295.50 133.97,295.73 134.02,295.37 134.09,294.98 134.12,294.82 134.15,294.63 134.20,294.95 134.21,294.92 134.45,296.36 134.57,297.14 134.58,297.10 134.62,296.85 134.64,296.91 134.67,296.90 134.70,297.06 134.73,297.05 135.40,297.15 135.48,297.15 135.63,297.15 136.81,296.69 137.01,296.15 138.74,294.32 139.97,294.57 141.00,296.48 141.10,296.54 142.01,297.29 143.12,300.20 143.22,300.40 143.32,300.55 143.42,300.71 143.52,300.85 143.62,301.11 143.72,301.33 143.83,301.51 143.93,301.69 144.05,301.86 144.15,302.01 144.24,302.22 144.35,302.39 144.45,302.47 145.96,303.76 147.31,304.12 148.33,304.08 148.41,304.08 149.17,304.26 149.29,304.31 149.40,304.40 149.51,304.45 149.64,304.52 149.76,304.59 149.86,304.63 149.95,304.67 150.05,304.70 150.17,304.80 150.30,305.00 150.43,305.18 150.53,305.29 150.61,305.36 150.70,305.43 150.81,305.52 150.94,305.71 151.06,305.90 151.16,306.03 151.24,306.09 153.00,305.85 154.35,305.80 154.74,305.90 154.83,305.93 154.93,305.97 155.06,306.03 155.17,306.00 155.27,306.01 156.26,306.09 157.47,305.51 158.41,304.84 158.51,304.74 158.65,304.65 158.77,304.59 158.87,304.48 158.98,304.35 159.09,304.25 159.21,304.18 159.33,304.10 159.45,304.02 159.85,303.58 159.96,303.54 161.16,302.89 161.26,302.83 162.64,302.43 164.11,302.83 164.44,303.20 164.56,303.18 164.66,303.20 165.78,302.43 166.96,300.70 167.67,300.59 169.24,302.27 170.73,303.64 172.08,304.39 172.38,304.52 172.48,304.56 172.56,304.60 172.65,304.64 172.75,304.68 172.83,304.72 172.92,304.76 173.04,304.81 173.17,304.86 174.27,305.24 174.59,305.31 174.69,305.34 175.01,305.39 175.59,305.31 177.09,304.71 178.42,303.94 179.60,303.44 180.21,303.22 180.31,303.19 180.79,303.08 180.91,303.05 181.03,303.03 181.14,303.03 181.28,303.02 181.40,303.02 181.53,303.01 181.66,303.01 181.75,303.00 182.12,302.93 182.22,302.88 182.34,302.84 182.44,302.80 182.52,302.76 182.62,302.72 182.70,302.68 182.79,302.64 182.88,302.60 184.24,302.01 186.15,301.17 187.88,300.29 189.57,299.44 190.37,299.17 190.47,299.12 190.57,299.07 191.17,299.06 191.76,299.09 191.88,299.09 191.99,299.08 193.74,299.13 194.74,299.01 194.83,299.00 194.92,298.99 195.01,298.97 195.09,298.95 195.19,298.93 196.69,298.11 197.26,297.82 197.52,297.61 197.64,297.47 199.03,296.05 199.52,295.60 200.36,294.80 201.75,293.95 203.06,293.55 204.15,293.71 205.38,295.57 206.57,296.16 207.62,296.27 209.29,295.74 209.82,296.31 210.45,295.70 211.81,295.33 213.11,296.08 214.34,295.58 214.66,295.49 215.37,295.41 215.84,295.35 216.02,295.31 217.20,296.03 217.76,296.25 218.42,295.94 219.70,295.09 219.91,294.90 221.42,294.01 222.44,292.63 222.51,292.46 222.62,292.23 223.01,291.51 223.64,291.07 224.09,290.89 224.23,291.09 224.45,291.87 224.53,292.07 225.03,291.33 225.93,290.07 226.11,290.05 226.21,290.07 226.96,289.82 227.55,289.72 229.10,290.30 230.74,290.38 232.86,293.25 234.37,294.26 234.90,293.89 235.76,291.65 236.42,290.87 236.43,290.85 236.50,290.88 237.62,293.08 237.64,293.08 237.65,293.11 239.50,293.83 241.25,294.89 242.88,295.33 244.21,293.86 246.09,294.08 247.84,294.16 249.36,292.76 250.89,293.04 252.58,293.46 254.21,293.71 255.77,293.61 257.15,294.31 258.62,294.02 260.56,293.59 262.26,294.27 263.84,292.35 266.01,292.26 267.77,291.66 269.35,293.94 270.99,291.93 272.76,291.58 273.68,292.64 273.77,292.84 275.34,291.52 275.99,291.09 276.10,291.08 277.47,292.14 278.96,290.79 279.05,290.86 280.75,291.00 281.85,291.80 281.93,291.71 282.19,291.52 282.27,291.49 282.34,291.47 282.43,291.48 282.55,291.52 283.93,292.14 285.78,291.89 287.51,291.72 288.98,291.96 290.84,291.67 292.25,291.47 293.09,291.40 293.35,291.35 293.51,291.32 293.76,291.27 293.86,291.25 295.23,291.24 296.21,291.10 296.30,291.11 296.40,291.13 297.76,290.84 297.86,290.81 297.96,290.77 298.05,290.76 298.14,290.75 298.24,290.73 298.35,290.72 299.86,290.93 301.09,290.93 302.56,290.02 303.77,289.69 305.08,290.25 305.35,290.44 305.43,290.49 305.53,290.57 306.54,291.29 306.64,291.36 306.75,291.42 307.02,291.52 307.10,291.55 307.19,291.59 308.68,292.04 308.79,292.05 308.88,292.04 308.97,292.03 309.07,292.02 309.17,292.01 309.29,292.00 310.74,291.51 312.43,290.49 314.04,289.40 316.05,288.61 318.31,287.74 320.34,285.32 322.21,283.97 323.61,284.52 324.49,285.35 324.59,285.47 326.16,284.74 327.18,283.68 328.79,282.62 329.29,282.25 329.40,282.15 330.85,281.20 332.54,279.62 333.05,279.09 333.23,279.13 333.32,279.16 333.41,279.20 335.03,280.56 336.78,281.03 338.57,280.46 340.20,280.50 342.38,282.82 344.26,284.04 345.03,284.16 345.12,284.22 345.21,284.30 347.08,284.55 349.08,284.21 351.19,283.77 352.97,282.48 354.91,280.63 356.62,279.35 358.26,278.75 360.09,279.03 361.77,279.30 362.10,279.32 362.17,279.31 362.25,279.30 363.91,278.94 365.65,278.79 366.29,278.57 366.38,278.54 366.47,278.51 366.56,278.47 366.66,278.45 366.86,278.38 366.96,278.30 367.05,278.22 367.15,278.14 367.32,278.01 367.41,277.94 367.52,277.87 367.61,277.81 367.70,277.75 367.80,277.67 367.97,277.53 368.06,277.46 368.16,277.38 368.24,277.31 368.33,277.23 368.41,277.15 368.50,277.08 368.68,276.93 368.95,276.68 369.05,276.60 369.14,276.54 370.59,275.20 372.63,273.01 374.54,271.09 376.41,269.80 377.98,269.24 379.57,268.57 381.33,267.90 383.45,266.77 385.33,264.94 387.01,262.76 388.70,260.27 390.25,258.00 391.96,255.50 393.55,253.85 394.37,253.38 394.47,253.33 396.20,252.55 397.56,252.00 399.06,251.25 400.48,250.29 402.48,249.06 403.01,248.72 403.12,248.64 403.21,248.59 403.30,248.53 403.39,248.47 404.74,247.06 405.67,245.55 407.03,242.40 408.41,239.45 409.81,237.22 411.06,234.73 412.47,231.20 413.68,228.21 415.06,224.04 416.51,218.61 418.21,210.84 419.45,204.42 420.95,197.12 421.96,192.67 422.35,191.13 422.84,189.72 424.39,185.13 425.72,183.26 427.04,182.68 428.07,180.07 429.67,181.16 431.26,177.97 431.37,177.54 432.32,172.48 432.78,169.74 434.17,162.08 436.08,148.71 437.40,139.86 438.01,135.88 438.12,135.26 438.19,134.85 438.27,134.37 438.36,133.72 438.46,133.04 439.30,127.26 439.75,125.42 439.83,125.40 441.66,125.31 442.79,120.26 444.38,113.53 445.55,108.53 446.08,106.33 446.17,106.01 446.25,105.75 447.36,102.19 447.72,101.34 447.79,101.18 448.40,99.89 448.53,99.61 448.61,99.45 448.70,99.27 450.05,95.96 450.98,93.12 451.24,92.31 452.68,87.08 454.44,79.34 455.98,72.40 457.83,66.37 459.04,64.64 459.12,64.58 459.21,64.51 459.30,64.45 459.38,64.38 460.99,63.14 461.05,63.14 461.13,63.15 461.29,63.09 461.36,63.04 461.48,62.96 461.68,62.86 462.43,62.87 463.58,64.19 463.75,64.39 464.02,64.81 464.43,65.50 465.25,66.80 465.78,67.26 466.04,67.84 466.05,67.83 466.10,67.75 466.31,67.20 466.56,67.50 467.20,66.44 467.59,67.02 468.59,68.61 468.73,68.23 469.41,66.36 469.61,65.98 470.55,65.20 470.56,65.20 470.71,65.15 471.72,64.48 471.76,64.49 472.51,65.31 472.97,65.34 473.74,65.79 473.97,66.03 475.14,64.55 476.33,63.30 477.09,62.76 477.23,62.84 478.68,63.95 479.42,64.48 480.69,66.05 482.22,67.09 483.95,69.30 485.81,72.27 487.48,75.66 489.30,77.08 490.60,76.93 490.72,76.96 492.18,77.53 493.95,78.51 495.41,79.89 496.80,83.74 497.94,86.60 498.03,86.67 498.12,86.73 499.33,88.21 499.55,88.45 500.71,91.76 500.82,92.11 500.91,92.19 501.04,92.65 501.13,93.04 501.22,93.33 501.31,93.57 501.39,93.94 501.50,94.38 501.91,95.21 501.98,95.48 502.06,95.92 502.15,96.40 502.26,96.83 502.35,96.96 502.43,97.10 502.54,97.34 502.82,97.89 502.91,98.10 502.99,98.13 503.07,98.06 503.22,98.29 503.30,98.51 503.38,98.74 503.46,99.03 503.55,99.28 503.64,99.52 504.33,101.23 504.51,101.47 504.64,101.70 505.90,101.83 507.07,102.51 507.47,103.28 507.55,103.56 508.05,105.45 509.03,109.14 510.24,112.41 510.32,112.85 511.52,116.16 512.18,117.62 513.52,123.15 514.61,127.37 515.30,128.38 515.55,129.44 515.69,129.88 515.84,130.15 515.99,130.39 516.11,130.84 516.21,131.15 516.29,131.43 516.37,131.81 516.45,132.12 516.54,132.38 517.98,136.78 519.24,143.86 520.93,149.62 522.17,151.12 522.80,153.06 523.30,156.64 523.69,159.31 523.76,159.75 524.56,165.76 524.75,167.25 525.19,169.68 525.69,172.71 525.94,174.49 526.00,174.77 527.41,180.52 528.37,182.03 530.13,184.63 531.47,185.52 532.55,186.42 534.00,188.43 535.54,191.57 537.01,195.57 538.37,199.97 539.99,204.97 541.52,209.62 542.95,212.46 544.40,213.66 545.92,212.72 547.32,211.17 547.92,210.07 548.90,206.73 550.17,204.94 551.70,196.66 552.01,194.73 552.69,190.76 553.06,190.27 554.46,188.02 556.05,184.29 557.15,182.33 558.20,181.44 558.34,181.62 558.44,181.81 559.66,186.66 559.84,186.66 559.98,186.00 560.58,182.96 561.27,181.49 561.64,181.28 563.03,183.83 563.19,184.23 564.25,186.95 564.45,187.69 566.11,191.20 567.24,196.54 567.39,197.44 567.52,198.24 568.21,202.29 568.35,203.17 570.23,212.45 571.90,219.17 573.10,223.39 574.52,227.46 576.11,232.11 577.43,235.57 579.07,238.58 580.60,240.93 580.75,241.19 582.73,244.90 583.85,246.92 585.45,249.18 586.78,250.58 588.40,251.69 589.65,252.32 590.79,252.85 592.61,253.94 594.26,255.52 596.26,258.79 597.65,262.36 599.49,267.27 600.75,269.22 602.26,270.37 603.54,270.90 604.55,271.06 606.33,271.64 606.43,271.67 608.19,272.13 610.10,271.95 611.67,271.55 613.14,271.91 614.45,272.73 615.69,273.74 616.89,274.69 617.16,274.86 618.54,275.78 619.58,276.31 619.59,276.32 619.68,276.39 619.75,276.47 619.84,276.56 619.93,276.65 620.02,276.73 621.49,277.93 623.01,278.58 624.45,279.31 625.99,280.10 627.69,281.01 629.08,281.73 630.55,282.26 632.31,282.32 634.24,282.05 636.08,282.34 637.73,283.41 639.19,284.62 639.94,285.17 642.02,286.39 643.76,287.21 645.53,288.24 647.59,289.63 649.17,290.44 650.88,290.57 651.89,290.28 653.29,289.76 655.06,289.25 656.75,289.11 656.84,289.10 656.93,289.10 657.13,289.15 658.17,289.49 659.49,290.48 660.43,291.40 660.67,291.57 662.80,293.28 664.79,294.47 666.16,295.19 667.72,295.53 669.28,295.10 670.77,294.99 671.86,295.15 673.69,296.56 675.82,298.45 677.48,299.39 679.14,299.59 680.83,299.62 682.31,298.98 682.48,298.91 682.56,298.90 682.65,298.86 682.73,298.80 682.82,298.74 682.92,298.68 684.16,297.87 685.41,297.25 686.76,296.41 688.28,294.91 689.80,293.54 691.27,292.92 692.32,293.12 692.80,293.55 692.92,293.65 693.05,293.75 693.83,294.59 693.92,294.67 693.99,294.78 695.29,296.44 695.62,296.79 695.97,297.20 696.06,297.31 696.21,297.46 696.31,297.52 696.42,297.58 697.71,298.26 698.89,298.97 700.15,299.30 700.27,299.31 701.89,299.33 703.24,299.51 705.34,299.35 706.21,298.99 707.78,298.03 708.36,297.76 708.45,297.72 708.55,297.68 708.66,297.65 708.77,297.62 710.20,297.41 711.37,297.58 712.04,297.42 712.31,297.59 712.58,297.40 713.01,297.09 713.10,297.05 713.19,297.03 713.27,297.04 713.37,297.05 713.58,297.07 713.70,297.08 713.80,297.10 713.95,297.10 714.04,297.08 714.12,297.05 714.21,297.01 714.30,296.96 714.43,296.93 714.51,296.95 714.63,296.95 714.78,296.95 714.92,296.98 715.05,296.99 715.34,296.68 715.41,296.60 715.50,296.51 716.10,295.98 716.31,295.76 717.60,294.76 718.40,294.51 718.88,294.51 719.45,294.82 719.85,294.74 720.68,295.80 722.48,295.64 723.03,295.33 723.17,295.15 724.20,294.82 724.67,294.80 725.85,295.32 727.08,296.28 727.23,296.29 728.69,295.84 729.88,295.50 730.95,295.31 732.42,295.65 733.90,295.90 735.22,295.55 736.31,295.34 736.83,295.40 738.17,295.71 739.59,296.16 741.03,296.33 742.39,296.52 743.62,297.18 743.75,297.27 743.89,297.38 744.26,297.64 744.90,298.06 746.34,298.96 746.87,299.06 747.32,298.93 747.61,298.86 747.70,298.85 749.06,299.26 750.23,299.00 751.31,298.66 751.45,298.68 751.70,298.75 751.93,298.89 752.68,299.08 752.92,299.12 753.21,299.13 754.85,299.09 756.24,299.25 757.02,299.48 757.99,300.01 758.08,300.06 758.24,300.15 758.33,300.21 758.43,300.26 758.53,300.32 758.62,300.38 759.43,300.89 760.79,301.76 762.12,302.69 762.39,302.86 762.48,302.93 762.58,303.01 762.67,303.09 762.77,303.16 762.86,303.22 762.96,303.28 764.35,304.19 764.44,304.24 764.63,304.32 766.38,305.00 766.63,305.08 766.73,305.11 766.76,305.11 766.77,305.11 766.78,305.11 766.92,305.11 767.00,305.11 767.10,305.10 767.50,305.06 767.89,305.00 769.29,304.46 769.37,304.44 770.21,304.28 771.11,304.27 771.79,304.42 771.89,304.46 772.01,304.50 773.55,304.96 775.21,305.07 775.58,305.07 775.66,305.06 775.72,305.04 777.00,304.64 777.82,304.15 777.92,304.08 778.01,304.02 778.11,303.96 778.20,303.91 778.30,303.84 778.40,303.78 778.50,303.71 778.60,303.63 778.71,303.54 778.81,303.46 780.06,302.34 780.94,301.24 781.03,301.14 781.21,300.96 781.46,301.15 782.51,302.57 782.59,302.67 783.04,303.27 784.53,304.18 785.62,303.50 787.24,302.47 788.46,302.83 790.18,304.53 791.88,305.70 792.67,306.18 792.75,306.24 792.83,306.28 792.92,306.32 793.00,306.34 793.54,306.43 794.30,306.15 794.37,306.10 794.46,306.07 794.55,306.04 794.64,306.03 794.73,306.02 796.07,306.00 797.36,306.41 798.80,305.71 800.47,304.47 801.83,304.48 803.08,304.39 804.26,303.31 804.37,303.26 805.06,302.95 805.24,302.73 806.39,301.33 807.73,298.25 809.19,295.81 809.46,294.91 810.73,295.47 811.92,295.96 813.24,298.19 813.91,299.38 815.01,301.53 816.12,303.07 816.58,303.13 816.78,302.98 817.75,304.18 817.88,303.98 818.45,303.23 818.86,302.90 818.99,302.75 819.18,302.40 819.66,300.85 820.25,298.66 820.32,298.40 820.74,296.38 821.24,293.81 821.87,290.66 822.05,289.61 822.37,287.92 822.56,286.87 822.67,286.75 823.96,292.90 824.65,296.19 825.56,296.45 826.21,297.56 827.93,300.59 828.97,302.51 829.23,302.97 829.91,303.44 830.21,304.25 830.52,304.01 830.69,303.63 830.92,302.42 831.22,301.15 831.56,299.93 832.48,292.90 832.83,290.18 833.59,289.02 834.22,292.53 834.54,294.43 834.63,294.91 834.90,296.75 835.34,299.81 835.34,299.81 835.80,302.77 835.90,303.39 836.01,304.13 836.71,307.42 837.03,308.46 838.11,310.06 839.11,310.60 839.19,310.89 839.46,310.96 839.77,311.87 840.80,311.60 841.99,310.86 842.20,310.69 842.52,310.19 842.90,309.37 843.07,309.07 843.23,308.77 843.76,306.85 844.23,305.07 845.41,301.35 846.06,298.86 846.28,298.16 846.78,296.02 847.39,293.86 847.68,293.26 847.75,292.90 849.06,297.96 849.43,298.32 850.10,298.50 851.58,298.53 852.78,298.32 854.21,296.55 855.49,292.59 855.59,292.22 856.93,286.38 858.10,282.83 858.25,282.44 858.35,282.20 859.35,279.91 859.45,279.72 859.54,279.53 859.62,279.36 859.71,279.18 859.80,279.00 859.88,278.84 859.97,278.68 860.05,278.54 860.75,277.17 861.24,276.07 861.32,275.89 861.40,275.73 861.49,275.55 861.64,275.16 862.79,273.64 862.99,273.84 863.39,274.74 863.90,276.11 864.31,277.41 864.43,277.73 864.54,278.00 865.95,281.49 866.56,283.35 866.92,283.91 866.96,284.05 867.16,285.07 867.79,287.12 867.98,287.64 868.06,287.81 869.64,289.73 870.00,289.99 870.00,350.00 80.00,350.00" stroke="#1a6fc4" stroke-width="2" fill="rgba(26,111,196,0.18)" />
  <line x1="236.42" y1="350" x2="236.42" y2="290.87" stroke="#c0392b" stroke-width="1" />
  <circle cx="236.42" cy="290.87" r="3" fill="#c0392b" />
  <text x="231.42" y="344.00" font-family="Verdana" font-size="10" style="text-anchor: start; fill: #c0392b; font-weight: bold;" transform="rotate(-90 231.42 344.00)">PUENTE DE SANCTI SPIRITUS</text>
  <line x1="345.03" y1="350" x2="345.03" y2="284.16" stroke="#c0392b" stroke-width="1" />
  <circle cx="345.03" cy="284.16" r="3" fill="#c0392b" />
  <text x="340.03" y="344.00" font-family="Verdana" font-size="10" style="text-anchor: start; fill: #c0392b; font-weight: bold;" transform="rotate(-90 340.03 344.00)">HUERTA DE TOHUS</text>
  <line x1="472.97" y1="350" x2="472.97" y2="65.34" stroke="#c0392b" stroke-width="1" />
  <circle cx="472.97" cy="65.34" r="3" fill="#c0392b" />
  <text x="467.97" y="344.00" font-family="Verdana" font-size="10" style="text-anchor: start; fill: #c0392b; font-weight: bold;" transform="rotate(-90 467.97 344.00)">SANTUARIO NUESTRA SEÑORA DE SONSOLES</text>
  <line x1="559.98" y1="350" x2="559.98" y2="186.00" stroke="#c0392b" stroke-width="1" />
  <circle cx="559.98" cy="186.00" r="3" fill="#c0392b" />
  <text x="554.98" y="344.00" font-family="Verdana" font-size="10" style="text-anchor: start; fill: #c0392b; font-weight: bold;" transform="rotate(-90 554.98 344.00)">CONVENTO DEL CISTER</text>
  <line x1="751.70" y1="350" x2="751.70" y2="298.75" stroke="#c0392b" stroke-width="1" />
  <circle cx="751.70" cy="298.75" r="3" fill="#c0392b" />
  <text x="746.70" y="344.00" font-family="Verdana" font-size="10" style="text-anchor: start; fill: #c0392b; font-weight: bold;" transform="rotate(-90 746.70 344.00)">ROTONDA DE LOS DONANTES</text>
  <text x="475.0" y="400" font-family="Verdana" font-size="13" style="text-anchor: middle; fill: #333;">Distancia (m)</text>
  <text x="20" y="190.0" font-family="Verdana" font-size="13" style="text-anchor: middle; fill: #333;" transform="rotate(-90 20 190)">Altitud (m)</text>
  <text x="80" y="18" font-family="Verdana" font-size="13" style="fill: #222; font-weight: bold;">Altimetria: AVILA CIUDAD - ERMITA DE LOS SONSOLES</text>
</svg>