<?xml version='1.0' encoding='utf-8'?>
<svg xmlns="http://www.w3.org/2000/svg" version="1.1" width="900" height="420" viewBox="0 0 900 420">
  <rect x="80" y="30" width="790" height="320" fill="#fbfbfb" stroke-width="1" stroke="#cccccc" />
  <line x1="80" y1="350.0" x2="870" y2="350.0" stroke="#e6e6e6" stroke-width="1" />
  <text x="70" y="354.0" font-family="Verdana" font-size="11" style="text-anchor: end; fill: #555;">1040</text>
  <line x1="80" y1="286.0" x2="870" y2="286.0" stroke="#e6e6e6" stroke-width="1" />
  <text x="70" y="290.0" font-family="Verdana" font-size="11" style="text-anchor: end; fill: #555;">1060</text>
  <line x1="80" y1="222.0" x2="870" y2="222.0" stroke="#e6e6e6" stroke-width="1" />
  <text x="70" y="226.0" font-family="Verdana" font-size="11" style="text-anchor: end; fill: #555;">1080</text>
  <line x1="80" y1="158.0" x2="870" y2="158.0" stroke="#e6e6e6" stroke-width="1" />
  <text x="70" y="162.0" font-family="Verdana" font-size="11" style="text-anchor: end; fill: #555;">1100</text>
  <line x1="80" y1="94.0" x2="870" y2="94.0" stroke="#e6e6e6" stroke-width="1" />
  <text x="70" y="98.0" font-family="Verdana" font-size="11" style="text-anchor: end; fill: #555;">1120</text>
  <line x1="80" y1="30.0" x2="870" y2="30.0" stroke="#e6e6e6" stroke-width="1" />
  <text x="70" y="34.0" font-family="Verdana" font-size="11" style="text-anchor: end; fill: #555;">1140</text>
  <line x1="80.0" y1="30" x2="80.0" y2="350" stroke="#e6e6e6" stroke-width="1" />
  <text x="80.0" y="368" font-family="Verdana" font-size="11" style="text-anchor: middle; fill: #555;">0</text>
  <line x1="244.29099527386307" y1="30" x2="244.29099527386307" y2="350" stroke="#e6e6e6" stroke-width="1" />
  <text x="244.29099527386307" y="368" font-family="Verdana" font-size="11" style="text-anchor: middle; fill: #555;">2000</text>
  <line x1="408.58199054772615" y1="30" x2="408.58199054772615" y2="350" stroke="#e6e6e6" stroke-width="1" />
  <text x="408.58199054772615" y="368" font-family="Verdana" font-size="11" style="text-anchor: middle; fill: #555;">4000</text>
  <line x1="572.8729858215893" y1="30" x2="572.8729858215893" y2="350" stroke="#e6e6e6" stroke-width="1" />
  <text x="572.8729858215893" y="368" font-family="Verdana" font-size="11" style="text-anchor: middle; fill: #555;">6000</text>
  <line x1="737.1639810954523" y1="30" x2="737.1639810954523" y2="350" stroke="#e6e6e6" stroke-width="1" />
  <text x="737.1639810954523" y="368" font-family="Verdana" font-size="11" style="text-anchor: middle; fill: #555;">8000</text>
  <line x1="80" y1="30" x2="80" y2="350" stroke="#333" stroke-width="1.5" />
  <line x1="80" y1="350" x2="870" y2="350" stroke="#333" stroke-width="1.5" />
  <polyline points="80.00,350.00 80.00,71.88 83.27,76.90 86.25,78.94 88.51,83.09 92.86,84.19 95.78,82.57 96.34,83.19 97.87,82.71 101.63,89.11 104.11,91.29 108.16,89.31 111.54,89.12 114.45,88.28 119.20,86.94 122.73,87.52 125.20,85.97 126.13,84.62 127.68,81.72 129.19,84.45 131.67,81.76 135.51,80.35 139.60,76.80 145.46,62.47 149.20,62.41 151.82,62.52 154.76,62.64 157.29,62.57 159.03,62.61 161.83,62.36 164.02,62.53 168.74,62.48 170.42,62.51 172.89,62.86 177.50,74.45 180.42,84.95 184.14,93.43 185.88,94.98 189.31,104.70 194.15,109.29 195.23,117.97 199.20,124.52 202.63,132.30 206.86,140.54 210.15,143.45 214.42,145.05 217.93,147.58 220.66,154.08 225.35,168.33 230.72,192.34 232.50,200.11 233.28,202.08 234.45,202.13 235.60,204.88 237.14,209.02 238.51,212.81 239.74,214.60 240.81,214.82 241.48,213.51 242.57,214.60 245.04,217.97 252.50,235.40 256.65,242.02 259.99,246.94 262.14,247.57 264.32,251.71 266.36,260.49 268.74,274.04 269.89,277.62 272.11,274.23 272.48,275.93 275.46,284.44 276.20,287.74 276.96,289.75 278.01,286.96 278.41,288.18 278.99,289.81 280.47,291.77 282.38,294.09 285.73,290.81 287.04,291.22 287.64,290.58 291.01,291.32 297.07,292.57 301.48,293.08 305.39,291.67 309.42,287.32 313.58,288.51 316.24,291.41 320.54,294.11 321.90,294.37 323.82,295.32 326.42,294.16 328.89,294.48 332.14,297.59 334.98,295.80 337.74,295.96 339.47,297.59 341.67,299.74 342.72,300.96 344.39,302.61 346.74,301.32 350.39,296.57 356.24,290.85 360.15,284.36 364.11,275.56 367.68,270.37 371.65,270.92 375.00,283.21 377.80,298.68 380.65,302.59 385.26,301.94 388.16,302.61 392.73,300.09 396.19,300.80 400.57,301.43 403.34,301.39 405.10,301.07 407.51,302.10 411.46,300.12 414.10,294.59 416.99,293.63 419.50,299.84 423.90,302.60 427.59,302.29 430.64,300.83 434.82,301.07 438.23,300.41 440.75,299.00 444.14,300.34 446.95,301.37 450.63,302.07 454.01,301.15 456.04,301.08 459.05,297.97 461.47,296.16 463.44,296.85 464.17,298.76 465.62,301.04 467.50,302.76 470.17,302.78 472.34,302.82 474.95,302.78 477.17,302.82 480.44,301.74 482.73,287.86 483.55,284.37 484.43,283.06 486.65,292.05 489.52,288.32 492.13,294.38 494.22,297.27 496.12,300.28 497.77,297.78 500.84,300.28 503.11,301.05 505.76,298.98 508.74,301.28 514.22,293.99 516.34,286.60 521.23,282.45 522.89,282.94 527.80,286.60 530.23,287.93 535.39,299.19 539.02,299.70 541.67,300.50 543.88,302.07 544.93,302.88 546.90,300.28 548.73,302.91 550.31,302.90 551.43,301.97 552.31,300.35 553.48,302.50 554.41,303.00 555.14,303.09 556.72,302.03 557.42,303.15 558.26,303.22 560.27,301.63 561.73,296.80 565.37,285.67 567.68,282.76 568.78,279.57 570.19,274.62 573.86,271.33 575.68,272.02 579.89,266.58 583.76,262.20 585.69,263.48 587.37,267.25 591.34,267.13 593.48,264.81 599.07,243.95 600.99,236.38 605.96,220.05 608.18,215.55 610.08,213.57 611.38,214.90 613.13,215.16 616.31,217.30 618.36,215.00 621.53,219.06 623.66,222.08 627.58,222.78 629.19,224.56 633.43,233.46 635.53,234.45 639.18,229.24 642.70,232.64 644.76,233.42 646.76,236.65 651.34,246.09 654.93,255.40 656.89,255.63 659.83,257.46 663.15,257.53 666.48,259.37 669.24,261.60 670.93,266.13 671.73,262.02 673.35,264.62 674.55,267.46 675.68,274.75 676.82,280.96 677.68,281.60 679.48,289.02 681.84,290.98 682.87,289.56 687.31,258.67 688.09,258.72 689.61,261.65 691.53,259.34 695.73,270.26 697.00,274.12 697.90,275.01 698.76,262.82 699.49,263.49 700.07,263.04 701.91,245.48 708.15,202.89 709.78,196.13 712.53,188.68 718.25,178.13 723.84,167.37 725.52,163.57 727.80,156.84 730.56,142.85 732.57,134.44 733.84,131.84 734.61,132.61 736.07,129.48 740.47,125.61 743.47,120.36 748.03,117.01 749.21,116.37 751.63,110.46 755.44,113.96 759.77,114.42 763.68,113.97 769.20,111.54 772.45,107.06 776.13,110.23 777.52,106.04 779.44,95.10 781.35,90.48 783.24,85.62 787.87,88.53 793.95,79.41 797.49,75.16 802.93,71.15 808.75,68.55 816.08,65.67 820.63,65.55 826.44,68.30 831.46,67.86 836.97,67.93 842.11,73.56 852.89,85.95 859.96,83.09 864.63,76.09 870.00,67.87 870.00,350.00 80.00,350.00" stroke="#1a6fc4" stroke-width="2" fill="rgba(26,111,196,0.18)" />
  <text x="475.0" y="400" font-family="Verdana" font-size="13" style="text-anchor: middle; fill: #333;">Distancia (m)</text>
  <text x="20" y="190.0" font-family="Verdana" font-size="13" style="text-anchor: middle; fill: #333;" transform="rotate(-90 20 190)">Altitud (m)</text>
  <text x="80" y="18" font-family="Verdana" font-size="13" style="fill: #222; font-weight: bold;">Altimetria: ÁVILA: RUTA CIRCULAR MURALLAS Y EMBALSE DE FUENTES CLARAS</text>
</svg>